<?xml version="1.0" encoding="UTF-8"?>
<svg width="640" height="480" xmlns="http://www.w3.org/2000/svg">
 <defs>
  <clipPath id="clipPath3311" clipPathUnits="userSpaceOnUse">
   <path id="path3313" d="m312.137115,290.707153l46.587799,-42.686569l24.602417,-48.145721l130.840332,46.38559l-11.111694,188.898514l-185.868073,-102.025391l-5.050781,-42.426422z" stroke-width="1px" stroke="#000000" fill-rule="evenodd" fill="none"/>
  </clipPath>
  <filter height="1.187333" y="-0.093666" width="1.204134" x="-0.102067" id="filter3347">
   <feGaussianBlur id="feGaussianBlur3349" stdDeviation="7.720157"/>
  </filter>
 </defs>
 <metadata id="metadata3164">image/svg+xmlEmpty box thinkingBruno Santos</metadata>
 <g>
  <path d="m187.969864,204.680481c-0.887634,1.65242 -1.399185,3.460449 -1.741623,5.291779c-0.323395,1.419815 -0.522827,3.163559 0.211548,4.48674c0.479553,1.06955 1.191376,2.069153 2.215744,2.672379c1.124557,0.583923 2.16066,0.58931 3.346786,0.308929c2.771011,-1.576523 -3.108704,1.769897 -4.907898,2.755356c-0.182312,0.099854 0.350281,-0.225464 0.50975,-0.358276c0.496323,-0.413391 0.871384,-0.941071 1.255478,-1.451721c0.93898,-1.188766 1.197983,-2.695099 1.463669,-4.142944c0.231979,-1.590591 0.081833,-3.221802 -0.529099,-4.712906c-0.499878,-0.880188 -1.017212,-1.928177 -1.988342,-2.331787l5.797638,-3.691132c1.080048,0.608978 1.688141,1.627365 2.239349,2.708008c0.645813,1.584717 0.867096,3.345551 0.600174,5.037796c-0.141876,1.53627 -0.338516,3.093506 -1.219376,4.407959c-2.09967,2.916809 -4.920532,5.085159 -8.723816,5.918381c-1.299225,0.229462 -2.522537,-0.092712 -3.631653,-0.801529c-1.051819,-0.807526 -2.011765,-1.712097 -2.458435,-2.992264c-0.657791,-1.55336 -0.72879,-3.21666 -0.338242,-4.85675c0.274918,-1.878738 0.817001,-3.666779 1.574783,-5.413071l6.323563,-2.834946z" id="path3181" stroke-dashoffset="0" stroke-miterlimit="4" stroke-linejoin="bevel" stroke-linecap="round" stroke-width="6" fill-rule="nonzero" fill="#000000"/>
  <path d="m211.465912,191.741058c-0.659149,1.722336 -1.578156,3.362686 -2.166443,5.115631c-0.74353,1.76358 -1.298615,3.658051 -1.475067,5.568634c-0.369949,1.954849 -0.400848,3.957565 -0.430481,5.942017c-0.085663,1.785049 0.051666,3.532166 0.567932,5.24585c0.329865,1.408813 0.935577,2.709457 2.213486,3.467712c1.203201,0.782608 2.624954,0.812637 4.012344,0.802963c1.233368,-0.319824 2.442261,-0.663925 3.513275,-1.363998c2.156036,-1.085373 5.359619,-2.895065 -4.26181,2.478241c-0.212509,0.118683 0.424225,-0.240982 0.620056,-0.38504c0.256439,-0.188644 0.924225,-0.826096 1.137787,-1.025528c1.812714,-1.493118 2.900604,-3.590332 4.098648,-5.556015c1.097488,-1.91629 1.738892,-4.008621 2.428131,-6.085907c0.655991,-1.985001 0.745255,-4.087631 1.034592,-6.143509c0.109222,-1.928085 -0.394699,-3.710724 -0.962341,-5.515533c-0.551361,-1.39151 -1.475311,-2.689392 -2.599335,-3.695023c-1.900223,-0.888351 -3.927567,-1.272705 -6.014603,-1.319275c-1.123947,0.043732 -2.142593,0.280411 -3.104294,0.848389c-0.201721,0.11911 -0.809616,0.471649 -0.605148,0.357239c1.767441,-0.989014 3.529495,-1.987442 5.294235,-2.981186l-6.376343,2.508545c3.72821,-2.204956 6.206299,-4.593338 10.360687,-4.706161c2.178864,0.146057 4.320236,0.585632 6.216492,1.710526c1.237915,1.134232 2.275131,2.378891 2.822876,3.989502c0.841782,1.799652 1.016357,3.794205 1.114258,5.757675c-0.205338,2.113403 -0.405457,4.241852 -1.008652,6.287399c-0.484695,2.177383 -1.380173,4.287247 -2.412094,6.262833c-1.173096,1.96051 -2.19574,4.071976 -3.853088,5.675171c-0.232727,0.196609 -0.465454,0.393204 -0.698166,0.589798c-0.160767,0.180893 -0.30336,0.379318 -0.482254,0.542618c-2.313507,2.111816 -5.459473,3.145325 -8.158005,4.737518c-1.183609,0.532455 -2.403671,0.959137 -3.708267,1.085114c-1.519226,-0.133118 -2.959625,-0.361542 -4.302643,-1.154343c-1.109604,-1.16069 -2.025192,-2.284424 -2.452576,-3.877182c-0.116531,-0.530624 -0.319122,-1.043213 -0.398254,-1.580582c-0.186127,-1.263687 -0.103302,-2.582657 -0.225769,-3.85466c0.135468,-2.004959 0.170883,-4.009552 0.372742,-6.010101c0.42511,-1.936188 0.685181,-3.902618 1.48996,-5.741867c0.657104,-1.74617 1.424438,-3.422318 2.101959,-5.154785l6.296173,-2.822678z" id="path3183" stroke-dashoffset="0" stroke-miterlimit="4" stroke-linejoin="bevel" stroke-linecap="round" stroke-width="6" fill-rule="nonzero" fill="#000000"/>
  <path d="m248.595673,179.074799c-0.688354,4.013474 -0.819595,8.081696 -0.950684,12.141479c-0.469818,3.849075 -0.180832,7.718918 -0.363876,11.577637c-0.188492,3.607117 0.378433,7.160172 0.764694,10.721848c0.402618,2.8741 1.070267,5.618271 2.384354,8.218109c1.187302,2.164978 2.808334,4.012085 4.37262,5.904617c2.003372,1.898087 4.636581,2.760834 7.286453,3.357468c3.126434,1.030502 6.360748,1.619064 9.620422,2.045105c3.144806,0.392273 6.374847,0.147278 9.289154,-1.111191c4.084137,-2.631317 -0.005157,0.029572 -7.907196,4.43573c-0.315094,0.175659 0.609314,-0.388275 0.890808,-0.613083c1.120728,-0.894882 1.808136,-1.844604 2.460297,-3.09819c1.213318,-2.905792 2.144897,-5.980453 2.815582,-9.058136c1.26123,-4.661499 3.806091,-3.706802 11.026642,-6.338226c0.391693,-0.142746 0.548828,3.358902 0.549408,3.391113c0.18396,3.100037 -0.283142,6.216934 0.660553,9.215363c0.157104,3.027054 1.919403,5.605576 3.522644,8.087952c2.6091,2.506516 6.10965,3.512177 9.554901,4.350204c3.934875,0.937256 7.979797,0.955185 11.985443,1.26947c3.937622,0.098557 7.831635,0.371521 11.726349,-0.282501c3.564423,-0.609573 6.928711,-1.987259 10.201141,-3.476639c3.534973,-1.815353 10.136383,-5.083725 -6.146271,3.561035c-0.485931,0.25798 0.890808,-0.643982 1.327454,-0.977463c1.010162,-0.771454 1.546417,-1.236267 2.521179,-2.049103c2.756378,-2.175217 5.47226,-4.393005 7.984222,-6.843658c3.356537,-3.123322 5.683167,-7.033417 8.090332,-10.867004c1.982635,-3.164673 3.493011,-6.514435 4.875519,-9.965912c0.830444,-2.915329 1.87796,-5.790192 2.566162,-8.741409c0.617523,-2.674377 1.180756,-5.473648 0.810211,-8.218231c-0.452484,-5.126465 -6.423737,0.424194 10.285645,-6.396042c0.032898,-0.013428 0.706665,0.707031 1.058228,1.077805c1.299103,1.375 2.863007,2.09964 4.553375,2.864365c2.713135,0.734528 5.455688,0.973969 8.24234,0.691589c2.712738,-0.292694 5.087402,-1.401581 7.440765,-2.702072c-16.804443,9.195007 -9.939301,6.400055 -7.145294,3.590179c1.09082,-1.097031 1.947021,-2.366104 2.850464,-3.611954c1.472015,-2.507004 2.495575,-5.233566 3.472198,-7.96283c1.14798,-3.003204 1.311493,-6.226257 1.609558,-9.392929c0.088226,-3.335083 0.249146,-6.674225 -0.195251,-9.989227c-0.40155,-2.777878 -1.240265,-5.407532 -2.120667,-8.060822c-0.756805,-2.347107 -1.797333,-4.753311 -3.087128,-6.873825c-1.076874,-2.348053 -2.493835,-4.467545 -3.897919,-6.634048c-1.669586,-1.831375 -2.92157,-4.075104 -4.877594,-5.615036c-1.965332,-1.749664 -4.115082,-3.303055 -6.306427,-4.763092c-1.894867,-1.246216 -4.364258,-1.816345 -2.207245,-4.327911c2.13504,-1.907814 4.307068,-3.775764 5.681274,-6.31295c1.702301,-3.001701 1.972015,-6.435188 2.048798,-9.803963c-0.352783,-4.422508 -1.307312,-8.765266 -2.788147,-12.94223c-0.959106,-2.967682 -2.516632,-5.61187 -4.250488,-8.19474c-2.019897,-2.836098 -4.404999,-5.490967 -7.045624,-7.780312c-1.477264,-1.268959 -2.895203,-2.810013 -4.548218,-3.874779c-2.55246,-1.644104 -0.074646,0.45298 -2.1828,-1.464691c-3.087555,-1.843529 -6.472076,-3.01413 -9.78653,-4.35096c-3.183411,-1.18708 -6.454437,-2.211586 -9.751251,-3.053055c-2.902924,-0.596725 -5.777374,-1.282753 -8.678619,-1.887581c-3.381836,-0.451202 -6.751465,-0.928558 -10.16626,-0.866661c-3.627411,-0.410378 -7.243225,-0.198387 -10.744904,0.80555c-9.006958,4.717964 11.660614,-6.609028 6.102112,-3.315598c-1.565765,-3.897972 11.574371,-7.074524 -9.582336,4.38868c-0.244507,0.1325 0.43576,-0.356354 0.591644,-0.585228c0.319611,-0.469215 0.424377,-1.051254 0.646881,-1.572662c0.772644,-2.141968 0.773285,-4.31266 0.591492,-6.537182c-0.6922,-1.937519 -1.609985,-3.63414 -3.189728,-4.993851c-1.820221,-1.70248 -3.974548,-2.915867 -6.251953,-3.925339c-3.245605,-0.67429 -6.402924,-1.711391 -9.67215,-2.279739c-3.272919,-0.668491 -6.587006,-0.87891 -9.918915,-0.886459c-4.167908,-0.202419 -8.330933,-0.222301 -12.503662,-0.230263c-4.947357,-0.019318 -9.895889,-0.022919 -14.845245,-0.063007c-3.927292,0.110069 -7.792206,-0.09795 -11.688431,0.40984c-3.037003,0.23782 -5.889023,1.46283 -8.554306,2.856701c15.00856,-9.10371 6.754181,-4.154732 3.09935,0.236279c-1.702042,2.606968 -2.602921,5.566929 -3.140671,8.603371c-0.719177,3.45789 -0.713501,7.059826 -0.226532,10.547649c0.345459,3.379639 1.383911,6.587616 2.561523,9.75605c0.993073,3.317001 2.535828,6.399879 4.017883,9.51561c1.502045,2.910622 3.271454,5.729797 5.746277,7.920197c1.821945,1.704651 4.199036,3.179604 6.779953,2.83091c3.264511,-1.679039 10.295609,-5.305328 -8.709518,4.830727c-0.301193,0.160614 0.585556,-0.363716 0.822083,-0.608582c0.487366,-0.504524 0.711304,-1.253845 0.629074,-1.915535c-0.849823,-1.961235 -3.196823,-2.577446 -5.093979,-3.103729c-2.68541,-0.493889 -5.192276,0.235924 -7.688293,1.144371c-5.09256,2.8908 6.011307,-3.415916 7.497284,-4.177368c0.501251,-0.256828 -0.871765,0.710228 -1.304504,1.069099c-1.34024,1.111481 -2.491196,2.276283 -3.676056,3.54528c-1.673325,2.092293 -3.552048,4.124023 -4.775116,6.517387c-1.49472,2.520691 -2.626007,5.183372 -3.457825,7.985901c-1.15567,3.009201 -1.894272,6.115021 -2.616928,9.246414c-0.844345,3.747604 -1.29689,7.552246 -1.60643,11.374435c-0.386932,3.408661 -0.572937,6.813095 0.305695,10.150665c0.676575,2.924835 1.41925,5.847519 2.628387,8.605804c1.148514,2.270935 2.879181,4.243256 4.534485,6.203217c1.466888,1.790253 3.37265,3.000626 5.313644,4.235062c2.2397,1.131607 4.55217,2.109085 6.724991,3.380569c1.741364,0.655243 3.184479,1.766663 4.776611,2.679337l-9.543884,6.148743c-1.612335,-0.859055 -3.200867,-1.75618 -4.840805,-2.564331c-2.312225,-1.142212 -4.538193,-2.391449 -6.918808,-3.383072c-1.938034,-1.415649 -3.929108,-2.785568 -5.469009,-4.602402c-1.680939,-2.044342 -3.456314,-4.047363 -4.587173,-6.463058c-1.419586,-2.777603 -2.126007,-5.820297 -2.799347,-8.856461c-0.225403,-1.175217 -0.578461,-2.332718 -0.681717,-3.524582c-0.197357,-2.278336 0.304764,-4.608734 0.193344,-6.890747c0.436569,-3.88002 0.767502,-7.762634 1.688339,-11.571213c0.646317,-3.123169 1.116776,-6.293991 2.400436,-9.248917c0.915314,-2.82766 1.863281,-5.652336 3.403534,-8.223656c1.327164,-2.403648 2.883545,-4.680824 4.715576,-6.739853c4.546173,-5.369247 10.373322,-9.55941 17.190186,-11.898804c2.662445,-0.910896 5.379486,-1.235962 8.16066,-0.635323c2.357315,0.85643 4.950867,1.745262 5.803177,4.341042c1.429993,5.578621 -8.908325,9.218353 -12.52359,9.775398c-2.916382,-0.559601 -4.925171,-1.791916 -7.184418,-3.683395c-2.244965,-2.539558 -4.393585,-5.13015 -5.839706,-8.218452c-1.812851,-3.006256 -2.541306,-6.500992 -4.129501,-9.62822c-1.010635,-3.301193 -2.248123,-6.560562 -2.657806,-10.014099c-0.589478,-3.57962 -0.561646,-7.406464 0.185654,-10.948509c0.456009,-3.112072 1.253647,-6.116993 2.710678,-8.930622c3.954712,-5.755539 10.478943,-8.676018 16.523987,-11.92252c2.814636,-1.323879 5.748596,-2.363331 8.884796,-2.583229c3.872467,-0.26152 7.720306,-0.308029 11.600739,-0.183849c4.976563,0.048218 9.953308,0.019341 14.930054,0.009449c4.205231,0.013199 8.403839,0.137749 12.603729,0.207951c3.36438,0.213139 6.729584,0.39603 10.049194,1.017899c3.247009,0.765221 6.528778,1.445282 9.680084,2.530872c2.473755,0.906406 4.842712,2.245678 6.615051,4.213577c1.592804,1.564781 2.902374,3.452702 3.353851,5.660221c0.587006,2.36261 0.551422,4.685951 -0.184113,7.018719c-1.703979,5.732529 -1.767059,3.524902 -11.161865,8.811188c-0.196045,0.110321 -0.475555,0.027733 -0.671234,-0.083366c-0.230255,-0.130783 -0.348724,-0.396599 -0.523163,-0.594879c-0.184448,-0.444481 -0.200958,-1.487762 0.329407,-1.83268c3.569305,-2.321404 8.359436,-5.905621 13.033081,-7.300701c3.590759,-0.809719 7.272583,-0.8386 10.934662,-0.549652c3.427917,0.097553 6.825409,0.442211 10.203094,1.039753c2.932404,0.59425 5.861938,1.258419 8.763947,1.9631c3.342102,0.833477 6.614349,1.97121 9.850494,3.134701c3.324402,1.423225 6.821503,2.613876 9.827545,4.637558c2.543304,1.540977 4.634033,3.516037 6.890167,5.436691c2.549347,2.533142 5.052643,5.040619 7.153656,7.975197c1.717133,2.719559 3.540588,5.372864 4.478851,8.48658c1.083801,4.384689 2.569214,8.685219 2.843353,13.235298c0.10376,3.51284 -0.223633,7.073013 -1.685974,10.321701c-1.338562,2.646469 -3.219696,4.848999 -5.629364,6.614601c-0.251007,0.197838 -0.501984,0.395721 -0.75293,0.593559c-0.149048,0.036461 -0.314087,0.03347 -0.447144,0.109352c-0.300446,0.171349 2.313385,1.892372 2.564178,1.818527c2.261169,1.460175 4.514648,3.034744 6.343262,5.011856c1.902496,1.753632 3.424194,3.750778 4.983459,5.793854c1.499847,2.137787 2.736694,4.442825 4.160065,6.630432c1.036194,2.372406 2.222687,4.679932 3.030457,7.130585c0.847748,2.73114 1.914825,5.405273 2.254669,8.265213c0.205048,3.395996 0.552094,6.773926 0.233612,10.183624c-0.485687,3.201813 -0.48233,6.471756 -1.33725,9.611374c-1.165405,2.783203 -2.057343,5.691971 -3.590668,8.307739c-4.01062,6.568451 -6.78833,7.426773 -15.146851,11.712662c-2.400726,1.26239 -4.984528,2.229477 -7.733002,2.312515c-2.88382,0.187195 -5.762238,-0.103683 -8.494476,-1.082428c-1.93338,-0.78804 -3.510834,-1.844772 -5.015045,-3.275909c-0.002686,-0.002594 -1.111115,-1.023071 -1.014069,-1.093399c11.608398,-8.414581 8.769257,-9.380844 9.952026,-4.839844c0.439636,2.835571 -0.168671,5.745163 -0.630432,8.5466c-0.910278,2.95491 -1.7883,5.911453 -2.599426,8.892273c-1.23291,3.566422 -2.858459,6.950226 -4.87207,10.153946c-0.723907,1.287064 -1.349609,2.629562 -2.127716,3.885208c-1.600708,2.583115 -3.787231,4.755722 -5.602417,7.182068c-2.499329,2.518005 -5.252228,4.757538 -8.034729,6.95932c-5.213928,4.471222 -11.138245,8.086273 -17.448975,10.856628c-3.344971,1.436325 -6.82373,2.699051 -10.435059,3.265656c-3.899597,0.461945 -7.83728,0.257584 -11.746277,0.01059c-4.105499,-0.059067 -8.220276,-0.508636 -12.232758,-1.376999c-3.53302,-0.965042 -7.501587,-2.234329 -9.947327,-5.053314c-1.852997,-2.522385 -3.318207,-5.321289 -3.959625,-8.39856c-0.62384,-3.117691 -0.474365,-6.254059 -0.619934,-9.413483c-0.077057,-0.758865 -0.377441,-2.775528 -0.248993,-2.855911c17.63382,-11.027863 10.934967,-8.474365 9.445435,-4.404358c-0.909546,3.10318 -1.747437,6.228241 -2.782013,9.295486c-2.496124,6.016296 -9.504425,8.507599 -15.12384,11.026978c-3.083099,0.939362 -6.320038,1.039276 -9.514496,0.629944c-3.318359,-0.388992 -6.501053,-1.30838 -9.730255,-2.132172c-2.774384,-0.819946 -5.7211,-1.668243 -7.691208,-3.904251c-1.50824,-2.042221 -3.346146,-3.87738 -4.454193,-6.188461c-1.500229,-2.668106 -2.09819,-5.591904 -2.694626,-8.561783c-0.144897,-3.65387 -0.872131,-7.264709 -0.632355,-10.919556c-0.203888,-3.869232 0.082703,-7.711868 0.269135,-11.576813c0.187561,-4.063675 0.243057,-8.131927 0.815689,-12.169693l10.390732,-5.085876z" id="path3187" stroke-dashoffset="0" stroke-miterlimit="4" stroke-linejoin="bevel" stroke-linecap="round" stroke-width="6" fill-rule="nonzero" fill="#000000"/>
  <path clip-path="url(#clipPath3311)" id="path3257" d="m326.717316,-2.13814c-3.122681,1.80972 -4.267853,7.03545 -6.679535,10.07592c-8.197449,14.1213 -16.394897,28.242629 -24.592316,42.363928c-16.733673,9.180603 -33.460236,18.374073 -50.198349,27.54665c0,26.122482 0,52.244949 0,78.367447c31.960892,22.298752 63.918076,44.602676 95.880661,66.899017c9.46582,-33.212082 19.061676,-66.409225 28.412445,-99.640182c0.030304,-22.714897 -0.060577,-45.466133 0.04538,-68.158321c1.130798,-2.639008 -0.03949,-7.020729 1.269623,-11.341457c2.076141,-15.393091 4.128082,-30.789421 6.219299,-46.180461c-16.785736,0.01789 -33.571472,0.04576 -50.357208,0.06746z" filter="url(#filter3347)" stroke-width="1px" fill-rule="evenodd" fill="#000000"/>
  <g id="g8732">
   <path id="path3167" d="m157.326965,224.827789c-2.063141,-0.357132 -4.151428,-0.429398 -6.236572,-0.561737c-2.582199,-0.208252 -5.132416,-0.066437 -7.700668,0.204239c-1.902756,0.262878 -3.766129,0.618439 -5.588089,1.212646c0.932678,-0.834396 -3.045776,1.591797 -1.870056,0.939972c9.290634,-5.150711 6.165894,-3.636871 4.106079,-2.144775c-1.080933,0.872284 -2.142731,1.762939 -3.085876,2.78215c-1.328842,1.375458 -2.297119,3.030411 -3.049545,4.770645c-0.884415,1.842697 -1.52327,3.806656 -2.040634,5.779892c-0.679428,2.034744 -0.885803,4.187088 -1.057159,6.312607c-0.170776,2.573685 -0.040833,5.16861 0.481171,7.698471c0.553711,2.470963 1.546417,4.769043 2.787003,6.96817c1.065598,2.252777 2.797348,3.999298 4.736053,5.527985c1.61055,1.265533 3.276779,2.391907 5.121094,3.286957c1.656616,0.786438 3.393021,1.461029 5.205841,1.779419c2.041916,0.460358 4.146286,0.457123 6.22261,0.645111c1.842758,0.12381 3.692368,0.052734 5.535599,0.136536c1.583832,-0.210205 3.204773,-0.688721 4.605743,-1.466248c2.28447,-1.148956 1.878586,-0.95871 -4.493713,2.600433c-0.236801,0.132263 0.461075,-0.285583 0.685562,-0.437469c0.744766,-0.503937 1.339905,-1.064484 1.959503,-1.708862c1.320358,-1.392303 2.39212,-2.965271 3.436096,-4.562164c1.069641,-1.606598 1.892075,-3.336853 2.678772,-5.091766c0.715027,-1.934692 1.359619,-3.894562 2.097748,-5.825699c0.64624,-2.550629 1.251984,-5.094711 1.711334,-7.688675c0.246033,-2.500763 0.749649,-4.987442 0.874878,-7.499954c0.059875,-1.201416 -0.058136,-2.994461 -0.115631,-4.179672c-0.312424,-4.038742 -2.18013,-7.700104 -4.359283,-11.051102c-1.816376,-2.005768 -3.9785,-3.506332 -6.673889,-3.985123c-1.615341,-0.304688 -3.232849,-0.146866 -4.682465,0.626663c-2.081512,1.087097 -5.435776,2.821136 4.151001,-2.361359c0.731812,-0.395599 -0.954193,0.739746 -1.599487,1.277084l-6.415314,2.56488c2.842072,-2.290695 5.937866,-4.286102 9.317184,-5.753967c1.599869,-0.515717 3.199493,-0.645981 4.84729,-0.18924c2.723129,0.735062 5.191544,2.1091 6.833099,4.449631c2.412094,3.362411 4.155975,7.232422 4.473465,11.385239c0.189468,1.610489 0.367096,2.594452 0.316803,4.214981c-0.0784,2.526718 -0.807922,5.022369 -0.89566,7.552048c-0.427322,2.613861 -0.903992,5.193314 -1.597595,7.745438c-0.713837,1.947052 -1.273071,3.932404 -2.038651,5.863297c-0.774673,1.790283 -1.546982,3.570709 -2.627106,5.205566c-1.033798,1.616364 -2.084885,3.215027 -3.364761,4.65509c-2.588379,3.050842 -6.428162,4.675446 -9.93779,6.483398c-1.528275,0.637817 -3.110474,1.114319 -4.775681,1.191345c-1.849884,-0.068634 -3.697052,-0.143982 -5.548431,-0.165985c-2.103363,-0.209259 -4.224808,-0.294312 -6.300018,-0.727478c-1.835602,-0.441498 -3.609283,-1.13623 -5.315277,-1.937744c-1.855362,-0.886719 -3.4599,-2.241333 -5.107452,-3.454895c-0.633057,-0.556732 -1.320587,-1.052002 -1.939209,-1.624481c-1.258636,-1.164795 -2.08194,-2.679932 -3.010269,-4.093689c-1.206734,-2.27774 -2.264297,-4.634705 -2.810951,-7.164948c-0.538269,-2.587677 -0.733841,-5.226517 -0.563545,-7.866531c0.079613,-2.152298 0.427719,-4.306335 0.923317,-6.40126c0.597198,-1.978195 1.11631,-3.999207 1.984993,-5.879242c0.899643,-1.718277 1.585495,-3.549667 2.96965,-4.971909c0.978271,-1.044418 1.947113,-2.099213 3.147751,-2.901779c2.698563,-2.509262 6.169144,-4.212875 9.611221,-5.536896c1.854279,-0.492691 3.752747,-0.816574 5.651459,-1.091934c2.536545,-0.21785 5.07666,-0.184097 7.617859,-0.031693c2.127563,0.101089 4.268204,0.177063 6.365936,0.566666l-5.655334,3.931717z" stroke-dashoffset="0" stroke-miterlimit="4" stroke-linejoin="bevel" stroke-linecap="round" stroke-width="6" fill-rule="nonzero" fill="#000000"/>
   <path id="path3175" d="m153.073303,301.941193c-1.737564,0.53891 -3.466461,1.112335 -5.203217,1.665771c-2.520569,0.746857 -5.007217,1.602875 -7.512726,2.399689c-2.816528,0.830231 -5.664108,1.55484 -8.478394,2.395844c-2.929626,0.822083 -5.905907,1.486145 -8.807381,2.407959c-2.522537,0.650238 -4.984848,1.455139 -7.464409,2.241425c-2.060707,0.702942 -4.041496,1.579742 -5.920799,2.671326c1.680679,-0.937897 3.342094,-1.910553 5.042038,-2.813721c0.497543,-0.264343 -0.900169,0.682587 -1.395477,0.950989c-2.15889,1.16983 -4.279282,2.418121 -6.505173,3.457306c-0.309059,0.144318 -0.872063,-0.376373 -1.045609,-0.507874c-0.80735,-1.167328 -1.052078,-2.460968 -1.145081,-3.851959c-0.165154,-1.825989 -0.211349,-3.634277 -0.429504,-5.455872c0.091415,-1.927429 -0.702133,-3.745117 -0.874947,-5.620789c-0.344688,-2.017731 -0.792839,-4.004608 -1.401413,-5.962311c-0.44738,-1.98111 -1.378143,-3.793213 -1.778091,-5.781403c-0.666489,-1.712311 -0.999832,-3.518311 -1.570229,-5.258331c-0.39534,-1.709351 -0.997437,-3.352448 -1.538322,-5.016388c-0.641853,-1.518524 -0.88047,-3.060242 -1.044563,-4.685486c-0.003197,-1.59903 0.588303,-3.039764 1.291634,-4.445526c0.673515,-1.42981 1.483536,-2.792969 2.172798,-4.215118c0.623207,-1.199249 1.340904,-2.343781 2.150574,-3.42981c0.881485,-1.114777 1.843384,-2.171661 2.867065,-3.160248c1.05117,-0.801971 1.870628,-1.672943 2.436905,-2.864471c1.369255,-3.36676 5.280838,-4.930389 8.58342,-6.074371c1.482094,-0.307861 2.689156,0.448349 3.891685,1.207993c0.946831,1.255524 1.576454,2.670349 2.133698,4.134262c0.733803,1.653442 1.281731,3.50058 1.457161,5.307617c0.38253,1.868134 0.41922,3.689545 0.18058,5.57489c-0.227257,1.594757 -1.06546,2.746765 -2.29879,3.726196c-3.55883,2.374237 -6.407364,4.246368 -10.458817,4.656494c-1.594452,0.217163 -3.043724,0.148193 -4.535423,-0.440552c-1.262848,-0.392578 -2.229507,-1.310242 -3.325104,-2.015472c-0.802994,-0.911682 -1.765816,-1.690521 -2.114197,-2.886902c0.005783,-0.626312 -0.048828,-0.325745 0.156876,-0.902924l6.346085,-2.703583c-0.335518,0.163513 -0.22123,0.043213 -0.373375,0.329742c0.223045,1.046814 1.037247,1.822052 1.861557,2.486359c0.954224,0.762726 1.917717,1.472626 3.093689,1.868317c1.413773,0.50592 2.897675,0.366028 4.36779,0.201385c3.115593,-0.561737 8.552895,-3.30603 -1.418839,1.910797c1.219269,-0.75351 2.286598,-1.664276 2.384048,-3.185272c0.61113,-1.791901 0.208794,-3.622742 0.140091,-5.473816c-0.360031,-1.759369 -0.738838,-3.497925 -1.479279,-5.148651c-0.50528,-1.337891 -1.030563,-2.705078 -2.004601,-3.786621c-0.324989,-0.191269 -0.575241,-0.503998 -0.92086,-0.655685c-0.7565,-0.332001 -1.7883,-0.21933 -2.532677,0.032593c-2.461143,1.16011 -1.082054,0.532837 4.703255,-2.826935c0.162872,-0.094589 -0.327019,0.189133 -0.476288,0.30365c-0.50267,0.385727 -0.860268,0.86554 -1.050728,1.468948c-0.540642,1.262573 -1.153755,2.435852 -2.394035,3.156525c-1.041656,0.918854 -1.931808,1.98822 -2.844406,3.028717c-0.758911,1.09375 -1.643631,2.100677 -2.211449,3.315063c-0.615143,1.461761 -1.565903,2.786072 -2.239319,4.228882c-0.68306,1.297058 -1.358482,2.673828 -1.399872,4.15744c0.103249,1.533966 0.334351,3.062195 0.922417,4.494934c0.654709,1.649292 1.154762,3.342346 1.55484,5.069641c0.549202,1.754364 0.964874,3.537598 1.53035,5.288849c0.411484,1.963684 1.240944,3.814636 1.817963,5.733978c0.612778,1.989624 1.064957,3.982697 1.439529,6.02594c0.119171,1.208649 0.546921,2.342163 0.697342,3.549561c0.0439,0.352203 0.025169,0.710022 0.065269,1.062683c0.039581,0.34787 0.115631,0.690735 0.173439,1.036102c0.026138,0.366425 0.052307,0.732849 0.078468,1.099213c0.062889,0.341675 0.158897,0.678986 0.18866,1.025055c0.095291,1.107971 -0.136391,2.250153 0.128632,3.351837c0.080032,1.066315 0.165398,2.46701 0.888618,3.286896c0.091713,0.042755 0.174339,0.117554 0.275093,0.128296c0.134148,0.014252 0.514946,-0.127502 0.400772,-0.056274c-9.820686,6.124817 -6.07724,3.529694 -3.963974,2.253571c2.20266,-1.330078 4.429581,-2.620392 6.644379,-3.930634c1.939621,-1.042236 3.963539,-1.894318 6.052101,-2.603546c2.4627,-0.825897 4.952988,-1.531342 7.45929,-2.217224c2.916382,-0.864716 5.901031,-1.496338 8.809967,-2.393311c2.817749,-0.763 5.63385,-1.542542 8.425644,-2.39209c2.529419,-0.806274 5.036209,-1.684265 7.578659,-2.448547c1.727646,-0.579773 3.459564,-1.170959 5.241669,-1.562439l-5.476685,4.081421z" stroke-dashoffset="0" stroke-miterlimit="4" stroke-linejoin="bevel" stroke-linecap="round" stroke-width="6" fill-rule="nonzero" fill="#000000"/>
   <path id="path3177" d="m114.845627,255.962601c0.29364,-1.672653 0.785591,-3.296768 1.246101,-4.930038c0.49646,-1.803955 1.529633,-3.239014 2.676071,-4.688049c1.452301,-1.45871 3.162262,-2.60347 4.912949,-3.674896c6.986275,-3.930222 4.495537,-2.516373 7.48687,-4.21611l-5.383255,4.308777c-2.417641,1.221252 -0.934715,0.489151 4.266907,-2.525879c-1.723206,0.990417 -3.398521,2.091599 -4.851563,3.45018c-1.282158,1.258972 -2.31321,2.671082 -2.83448,4.406631c-0.551758,1.567215 -1.052536,3.201553 -1.264679,4.839218l-6.254921,3.030167z" stroke-dashoffset="0" stroke-miterlimit="4" stroke-linejoin="bevel" stroke-linecap="round" stroke-width="6" fill-rule="nonzero" fill="#000000"/>
   <path id="path3179" d="m163.017456,295.100067c1.233765,1.850861 2.546875,3.649384 3.795395,5.490936c1.132263,1.628296 2.340256,3.231354 3.264603,4.992218c0.99527,1.30954 1.716537,2.741364 2.438248,4.210297c0.826782,1.603607 1.468826,3.297546 1.969498,5.026581c0.999298,3.139893 1.601563,6.38031 2.462204,9.556366c1.024918,3.936493 2.052048,7.880402 3.214584,11.783386c0.721863,2.738312 1.104858,5.580597 2.131378,8.227966c0.05661,1.01709 0.773163,0.800446 1.061768,1.565826c0.447601,1.291046 0.055084,2.680237 -0.209137,3.969971c-0.360504,2.188293 -1.269806,4.22641 -1.832306,6.36084c-0.473724,1.674591 -1.02243,3.308624 -1.65564,4.930145c-0.792145,2.581055 -3.983856,2.423248 -6.7724,3.311981c-0.167847,0.053497 -0.093048,-0.339233 -0.106384,-0.513428c-0.020935,-0.27356 0.083588,-1.025726 0.109436,-1.246338c0.299713,-1.819305 0.625565,-3.621643 1.205414,-5.377899c0.702606,-2.133972 1.247772,-4.313599 2.016266,-6.42688c1.600952,-4.785004 2.202698,-3.894592 7.919708,-7.210205c1.093811,0.166443 1.640778,1.308868 2.021667,2.227844c0.879349,1.591614 1.252472,3.337982 1.51088,5.113037c0.537918,2.065796 1.638809,10.249207 2.035843,12.350616c0.104614,1.00119 0.30484,1.988129 0.46759,2.980804l-6.072037,3.153198c-0.090805,-0.98468 -0.211441,-1.962067 -0.466385,-2.921478c-0.374832,-2.100983 -1.464661,-10.290649 -1.949158,-12.365662c-0.426758,-1.673004 -0.718414,-3.3974 -1.514862,-4.950623c-0.296402,-0.521393 -0.693481,-1.759552 -1.476669,-1.292725c12.246246,-7.24649 5.961624,-4.312744 4.809433,-2.473022c-0.495209,0.79071 -0.683258,1.721527 -1.155899,2.523987c-0.725723,2.1026 -1.237808,4.269592 -1.949112,6.37796c-0.530151,1.754303 -0.940643,3.50708 -1.235718,5.311646c-0.059814,0.262238 -0.158722,1.299957 -0.167694,1.305389c-1.952133,1.173035 -3.989639,2.2005 -5.984436,3.300781c0.388458,0.085876 0.193451,0.119965 0.494629,-0.325989c0.648773,-1.598022 1.202774,-3.208527 1.705627,-4.85849c0.606857,-2.095551 1.388824,-4.133698 1.807159,-6.278595c0.250732,-1.190857 0.578293,-2.378021 0.439713,-3.592316c-0.577011,-0.381134 -0.878235,-0.932098 -1.139511,-1.632538c-0.755432,-2.755524 -1.479736,-5.520874 -2.069397,-8.316406c-0.998779,-3.959808 -2.13533,-7.881805 -3.103516,-11.848969c-0.885773,-3.13327 -1.598175,-6.321686 -2.601624,-9.413269c-0.50885,-1.698212 -1.072113,-3.397003 -1.924454,-4.959961c-0.674149,-1.441681 -1.529327,-2.795898 -2.334335,-4.167908c-0.944717,-1.74649 -2.276947,-3.259155 -3.330536,-4.941193c-1.0159,-1.977386 -2.542328,-3.654541 -3.775909,-5.505371l5.946075,-3.452515z" stroke-dashoffset="0" stroke-miterlimit="4" stroke-linejoin="bevel" stroke-linecap="round" stroke-width="6" fill-rule="nonzero" fill="#000000"/>
   <path d="m163.482224,270.502411c-0.220474,1.418671 -0.358154,2.84729 -0.622101,4.266144c-0.379791,1.607391 -0.352325,3.263306 -0.790955,4.856079c-0.274994,1.847076 -0.336594,3.713776 -0.574905,5.563721c-0.267426,1.577637 -0.594437,3.153229 -0.562622,4.755524c-0.169479,1.342926 -0.456726,2.660431 -0.642471,4.001129c-0.198669,1.329163 -0.163376,2.667206 -0.302475,3.999878c-0.310165,1.391327 -0.325195,2.828888 -0.607651,4.222412c-0.36348,1.648499 -0.50412,3.326996 -0.610107,5.006958c-0.167999,1.605347 -0.18045,3.226715 -0.201096,4.840454c-0.048309,1.759003 -0.055908,3.518707 -0.060944,5.278778c-0.029251,1.527069 0.051559,3.048004 -0.01767,4.573578c-0.003723,1.591492 0.002716,3.186371 0.017456,4.779694c-0.093491,1.790314 0.241425,3.559601 0.399216,5.337891c0.215591,1.737213 0.497131,3.451477 0.728561,5.187256c0.060226,1.386108 0.410675,2.724548 0.618225,4.092529c0.256012,1.270782 0.161804,2.6026 0.604584,3.825836c0.03923,1.45343 0.373169,2.891266 0.613068,4.328308c0.150055,1.4375 0.332458,2.865967 0.555176,4.294373c0.209167,1.433044 0.466766,2.855499 0.519684,4.304657l-4.94664,2.550964c-0.191177,-1.411407 -0.332062,-2.83017 -0.589142,-4.232635c-0.287064,-1.406067 -0.213531,-2.869293 -0.537521,-4.281616c-0.192917,-0.96048 -0.389481,-1.93515 -0.46431,-2.913422c-0.018921,-0.247192 0.018707,-0.498322 -0.018295,-0.7435c-0.033325,-0.220703 -0.127243,-0.428131 -0.190872,-0.642212c-0.20105,-1.290039 -0.365768,-2.579315 -0.550812,-3.87149c-0.03157,-1.387817 -0.595016,-2.724884 -0.598953,-4.128021c-0.170578,-1.741547 -0.473251,-3.472748 -0.727173,-5.204651c-0.202713,-1.7948 -0.415955,-3.582794 -0.40329,-5.385681c-0.02269,-1.593628 -0.048813,-3.183685 -0.030273,-4.773499c-0.001862,-1.520233 0.027756,-3.033203 -0.027863,-4.552155c0.10817,-1.766785 -0.004913,-3.542694 0.106888,-5.310303c-0.074982,-1.610718 0.082474,-3.229675 0.126953,-4.841034c0.230957,-1.685425 0.260437,-3.395172 0.610977,-5.064087c0.305634,-1.378632 0.292572,-2.814575 0.613052,-4.196808c0.150452,-1.339478 0.13559,-2.694733 0.341965,-4.030548c0.151062,-1.329468 0.547852,-2.606537 0.600708,-3.94632c0.041901,-1.613617 0.35704,-3.206818 0.595871,-4.799103c0.235123,-1.863342 0.361191,-3.732635 0.590652,-5.593597c0.352982,-1.601868 0.392517,-3.256287 0.752441,-4.857758c0.295029,-1.405151 0.362366,-2.815796 0.594864,-4.232941l5.087799,-2.464783z" id="path8653" stroke-dashoffset="0" stroke-miterlimit="4" stroke-linejoin="bevel" stroke-linecap="round" stroke-width="6" fill-rule="nonzero" fill="#000000"/>
   <path d="m162.734024,357.595337c-0.502228,1.448883 -0.871338,2.933044 -1.314224,4.401917c-0.240463,1.394958 -0.747253,2.71994 -1.026627,4.10556c-0.33667,1.377869 -0.781326,2.721161 -1.143127,4.089417c-0.143784,1.327454 -0.571228,2.611542 -0.762085,3.926941c-0.30455,1.294525 -0.581696,2.591949 -0.866486,3.890259c-0.151581,1.291748 -0.501984,2.544037 -0.730972,3.822906c-0.299561,1.438446 -0.540359,2.890686 -0.82515,4.332794c-0.134079,1.631683 -0.406464,3.244537 -0.640503,4.867096c-0.237488,1.673431 -0.296021,3.34024 -0.379089,5.024841c0.008102,1.554016 -0.146301,3.095825 -0.417801,4.624176c-0.103165,1.372406 -0.268066,2.710815 -0.266663,4.088409c-0.13913,1.359863 -0.078552,2.724518 -0.194092,4.086365c-0.27684,1.258606 -0.441269,2.545654 -0.497345,3.831512c-0.124329,1.369659 -0.051224,2.731079 -0.102753,4.10199c-0.109924,1.399658 -0.030975,2.821899 -0.053162,4.235992c-0.035004,1.337128 -0.280685,2.61792 -0.773514,3.85553c-1.726181,2.541321 -4.614777,4.193542 -7.161316,2.798676c-0.93074,-0.348022 -1.747849,-0.973694 -2.645111,-1.424988c-1.005142,-0.581299 -2.098358,-0.978302 -3.160568,-1.444214c-1.107727,-0.542358 -2.35672,-0.651093 -3.564163,-0.824219c-1.373306,-0.158417 -2.749527,-0.147034 -4.129562,-0.173676c-1.246567,0.04361 -2.528534,0.134155 -3.731827,0.473541c-1.105736,0.289337 -2.151016,0.71463 -3.246513,1.040253c-0.969612,0.43158 -1.963051,0.854523 -2.871475,1.402466c-1.733963,0.935211 -2.969788,1.60614 3.947334,-2.248962c0.155861,-0.086884 -0.30233,0.189484 -0.449211,0.290497c-0.421951,0.290283 -0.815872,0.609344 -1.244141,0.891998c-1.941292,1.139465 -5.410309,5.013245 -6.728706,2.72699l4.957558,-2.767761c0.091568,0.031891 0.367912,-0.111359 0.284279,-0.062531c-8.248566,4.817261 -5.423828,3.247925 -3.76091,2.119141c0.603264,-0.335876 1.078728,-0.804108 1.668503,-1.150452c1.752907,-1.029388 3.51017,-2.051514 5.268318,-3.072113c0.153381,-0.08902 0.31076,-0.171112 0.466148,-0.256714c0.975182,-0.492279 1.954529,-0.971344 2.98938,-1.330597c1.101395,-0.258026 2.128922,-0.792572 3.248688,-1.005737c1.250931,-0.201904 2.5168,-0.367432 3.786453,-0.334534c1.386581,0.026398 2.772369,0.105438 4.154129,0.225128c1.244888,0.235138 2.537994,0.393494 3.687592,0.950226c1.058914,0.501617 2.151718,0.93399 3.178101,1.499298c0.867676,0.421906 1.642075,1.010406 2.523758,1.407166c0.342682,0.06665 0.839005,0.253693 1.189819,0.227814c0.108047,-0.007996 0.399338,-0.161652 0.307266,-0.105042c-5.157028,3.170319 -5.76741,3.647156 -4.14743,2.425385c0.779083,-1.036469 0.778046,-2.353638 0.925507,-3.593567c0.009384,-1.416321 0.05014,-2.826813 0.05545,-4.244049c-0.066162,-1.37915 0.098389,-2.743591 0.077377,-4.122131c0.114471,-1.288025 0.254364,-2.568878 0.431778,-3.8508c0.224808,-1.334198 0.260117,-2.673492 0.216064,-4.0289c0.104858,-1.392914 0.126694,-2.783752 0.31279,-4.169861c0.169815,-1.523956 0.573807,-3.019928 0.432236,-4.571533c0.073364,-1.694672 0.153625,-3.383209 0.348618,-5.068329c0.076981,-0.550415 0.082245,-1.11084 0.187668,-1.656586c0.057861,-0.2995 0.19072,-0.580963 0.255646,-0.879028c0.170334,-0.781799 0.042816,-1.551575 0.187256,-2.334656c0.241211,-1.467224 0.51445,-2.928223 0.850266,-4.377045c0.188736,-1.286957 0.59465,-2.517151 0.718124,-3.814117c0.272354,-1.300812 0.579132,-2.59436 0.832138,-3.897705c0.33606,-1.309326 0.609192,-2.617096 0.79892,-3.955658c0.165344,-0.697693 0.470566,-1.388611 0.617752,-2.081573c0.04361,-0.205261 -0.017273,-0.424225 0.030487,-0.628601c0.059418,-0.25412 0.191254,-0.486084 0.286896,-0.729126c0.049286,-0.213837 0.098572,-0.427643 0.147858,-0.641479c0.405609,-1.354279 0.805679,-2.727966 1.07756,-4.105438c0.387482,-1.477539 0.903793,-2.914032 1.220245,-4.408234l5.166565,-2.404327z" id="path8655" stroke-dashoffset="0" stroke-miterlimit="4" stroke-linejoin="bevel" stroke-linecap="round" stroke-width="6" fill-rule="nonzero" fill="#000000"/>
   <path d="m162.124954,358.898041c0.251511,1.625763 0.643066,3.232819 0.885849,4.862732c0.21936,1.586487 0.315247,3.158386 0.377838,4.75528c0.196442,1.283295 0.428879,2.563904 0.571198,3.854889c0.180984,1.360443 0.190826,2.739014 0.187378,4.109314c0.062515,1.398468 0.067078,2.814453 0.036652,4.21875c0.135025,1.251892 0.406311,2.475403 0.499237,3.732422c0.121124,1.356659 0.1651,2.715271 0.197083,4.07666c0.115143,1.396698 0.057083,2.801117 0.063309,4.20105c-0.010696,1.419678 0.027222,2.839325 -0.032196,4.260712c-0.049545,1.420166 0.063477,2.833221 -0.019714,4.256317c0.085632,1.403198 0.038757,2.811462 0.058197,4.217285c0.010574,1.439728 -0.0168,2.878082 -0.021713,4.31897c0.03183,1.574036 0.042679,3.152344 -0.039856,4.725861c0.094116,1.391663 -0.016296,2.799042 0.200928,4.181427c0.262054,1.277618 0.305389,2.597107 0.390961,3.898621c0.079773,1.377533 0.216141,2.778778 0.107025,4.15564c0.028336,0.392517 0.101379,0.784424 0.131042,1.176636c0.00209,0.027588 -0.001434,0.108887 -0.009521,0.082397c-0.092453,-0.302216 -0.071838,-0.236511 0.069672,-0.478638c-7.472839,4.913025 -5.006439,3.292877 -3.463898,1.145935c0.563614,-0.919495 1.432724,-1.574707 2.237854,-2.270996c0.846191,-0.742462 1.755035,-1.428741 2.698349,-2.046509c2.537979,-1.527435 4.957779,-3.748016 7.975571,-4.052673c1.070175,0.026886 2.160172,0.13504 3.141281,0.577698c1.004379,0.34201 2.021683,0.71521 2.946396,1.239563c0.992508,0.368408 1.778168,1.092224 2.566986,1.768158c0.753265,0.671204 1.620804,1.254333 2.248444,2.04718l-4.826843,2.924133c-0.730026,-0.690002 -1.401443,-1.414185 -2.211395,-2.015625c-0.786026,-0.626282 -1.552948,-1.330383 -2.530899,-1.62738c-0.913269,-0.504364 -1.883026,-0.865295 -2.869629,-1.204376c-0.95224,-0.33316 -1.962448,-0.462006 -2.969391,-0.356232c-0.603699,0.141937 -0.459305,0.084015 -1.07811,0.339844c-0.164948,0.068207 -0.641998,0.30954 -0.488693,0.218536c7.784622,-4.621277 4.991653,-2.981934 3.384186,-1.881775c-0.987473,0.548065 -1.870911,1.257477 -2.757996,1.949524c-0.773132,0.730225 -1.701859,1.299683 -2.302963,2.193848c-0.271591,0.35849 -0.46553,0.742157 -0.712936,1.114624c-1.190674,1.792633 -5.429474,1.005859 -5.427826,3.478668c-0.86586,0.051147 -0.822144,-1.2612 -0.700165,-1.815063c-0.04567,-1.361664 0.042511,-2.732971 -0.181656,-4.085663c-0.008636,-1.301025 -0.183884,-2.575745 -0.375153,-3.861267c-0.161377,-1.430695 -0.245361,-2.855469 -0.144058,-4.295807c-0.077637,-1.559479 0.06987,-3.121735 -0.047302,-4.681854c0.019592,-1.441437 0.039703,-2.880402 0.022842,-4.31955c-0.033157,-1.417908 0.028137,-2.837616 0.018799,-4.256073c-0.026169,-1.415924 0.046234,-2.830536 -0.004852,-4.243591c0.027054,-1.413513 -0.06514,-2.831146 0.005981,-4.245361c-0.065994,-1.397644 0.032272,-2.803101 -0.035919,-4.203125c-0.003799,-1.346283 -0.145828,-2.6875 -0.188705,-4.032166c-0.156693,-1.267822 -0.333282,-2.52536 -0.498444,-3.793182c-0.003906,-1.4086 -0.03212,-2.802032 -0.03154,-4.208954c-0.042816,-1.340454 0.022324,-2.701019 -0.265808,-4.016296c-0.023941,-1.31546 -0.420898,-2.605682 -0.521011,-3.921417c-0.069641,-1.564941 -0.128922,-3.135925 -0.383408,-4.684662c-0.076584,-1.637848 -0.696945,-3.224823 -0.858643,-4.868011l4.977188,-2.616425z" id="path8657" stroke-dashoffset="0" stroke-miterlimit="4" stroke-linejoin="bevel" stroke-linecap="round" stroke-width="6" fill-rule="nonzero" fill="#000000"/>
  </g>
  <title>Layer 1</title>
 </g>
</svg>